#!OML:ASF \\sashay\E\basketball\basketball\Project 1\Capture day 1\Session 1\Subject.ASF
:FULLY-SPECIFIED
:DEGREES
649
root 2.38502 16.0924 1.34264 345.103 -220.558 -368.887
lowerback 14.1002 -0.144525 -1.74208
upperback 6.12752 0.116759 -0.155019
thorax -1.44663 0.262152 0.797763
lowerneck -0.223138 10.272 -10.3405
upperneck 2.68479 13.8538 0.494417
head 0.126448 6.8766 1.77835
rclavicle 5.52621e-014 1.59028e-015
rhumerus 15.7297 7.31778 -90.5575
rradius 109.012
rwrist -31.5621
rhand -28.3543 43.6539
rfingers 7.12502
rthumb -1.72813 13.6812
lclavicle 5.52621e-014 1.59028e-015
lhumerus 49.4536 -29.7602 59.5312
lradius 97.1942
lwrist 28.3088
lhand -23.0388 24.4428
lfingers 7.12502
lthumb 3.40565 54.3954
rfemur -22.7341 -0.789271 -2.97081
rtibia 39.4485
rfoot 9.18668 0.38113
rtoes -46.3269
lfemur 12.3725 11.1661 -10.5164
ltibia 27.8265
lfoot 4.2809 -4.9599
ltoes -23.2998
650
root 2.46043 16.0149 1.35979 344.919 -222.608 -369.242
lowerback 14.8019 -0.385543 -2.26548
upperback 6.30863 -0.257851 -0.226773
thorax -1.61351 0.080581 1.07576
lowerneck 0.00701371 10.8892 -10.0773
upperneck 1.24356 14.5825 0.224308
head -0.366229 7.2801 1.56375
rclavicle -8.5875e-014 1.03368e-014
rhumerus 12.9073 7.48735 -90.9578
rradius 109.602
rwrist -31.523
rhand -28.0715 44.077
rfingers 7.12502
rthumb -1.45501 14.1022
lclavicle -8.5875e-014 1.03368e-014
lhumerus 46.8903 -31.0407 60.5573
lradius 97.9471
lwrist 28.1337
lhand -23.0193 24.678
lfingers 7.12502
lthumb 3.42445 54.6302
rfemur -23.6144 0.336472 -2.32591
rtibia 38.3973
rfoot 9.37932 1.59838
rtoes -46.9648
lfemur 11.9979 11.4507 -10.0291
ltibia 29.5086
lfoot 4.08312 -5.80768
ltoes -22.4325
651
root 2.54079 15.9265 1.37605 344.696 -224.425 -369.678
lowerback 15.5003 -0.757695 -2.93466
upperback 6.50868 -0.830433 -0.384817
thorax -1.73905 -0.199079 1.38403
lowerneck -0.656025 11.4972 -9.96916
upperneck 0.510797 15.4271 0.342463
head -0.533375 7.71819 1.57122
rclavicle 3.91606e-014 1.90833e-014
rhumerus 10.1503 7.78881 -91.5177
rradius 109.957
rwrist -31.2282
rhand -28.0232 45.0934
rfingers 7.12502
rthumb -1.40834 15.1184
lclavicle 3.91606e-014 1.90833e-014
lhumerus 44.2155 -32.1077 61.4515
lradius 98.5398
lwrist 28.0617
lhand -23.1975 24.7522
lfingers 7.12502
lthumb 3.25239 54.7072
rfemur -24.4432 1.26053 -1.79257
rtibia 37.548
rfoot 9.77943 3.06766
rtoes -47.7817
lfemur 11.4651 11.9897 -9.4744
ltibia 31.4367
lfoot 4.00655 -6.90109
ltoes -21.2927
652
root 2.62322 15.8333 1.3939 344.538 -226.049 -370.093
lowerback 16.1449 -1.1312 -3.62005
upperback 6.75087 -1.40875 -0.638421
thorax -1.77919 -0.479458 1.60825
lowerneck -0.834075 12.0559 -8.67999
upperneck -0.436198 16.1514 -0.204854
head -0.681884 8.10267 1.16958
rclavicle -2.56432e-014 6.36111e-015
rhumerus 7.44098 8.12858 -92.1764
rradius 110.326
rwrist -30.3872
rhand -29.4641 44.6287
rfingers 7.12502
rthumb -2.7999 14.6673
lclavicle -2.56432e-014 6.36111e-015
lhumerus 41.9138 -33.3244 62.147
lradius 98.7619
lwrist 27.8411
lhand -23.5489 25.0717
lfingers 7.12502
lthumb 2.913 55.0315
rfemur -25.2165 2.01197 -1.25895
rtibia 36.9617
rfoot 10.3509 4.19233
rtoes -47.8693
lfemur 10.7142 12.4362 -8.98308
ltibia 33.5671
lfoot 3.69333 -7.86455
ltoes -21.4778
653
root 2.7021 15.732 1.4132 344.387 -227.574 -370.511
lowerback 16.695 -1.55013 -4.6843
upperback 7.1471 -2.07565 -0.523657
thorax -1.5536 -0.819527 2.44845
lowerneck -2.245 12.6939 -9.02613
upperneck -0.972588 17.1442 -0.34633
head -0.67763 8.61795 1.22631
rclavicle 7.95139e-015 -7.95139e-016
rhumerus 5.1626 9.03193 -92.1139
rradius 110.677
rwrist -29.8069
rhand -30.3016 43.7318
rfingers 7.12502
rthumb -3.60868 13.7826
lclavicle 7.95139e-015 -7.95139e-016
lhumerus 39.6361 -33.9498 63.443
lradius 98.7582
lwrist 27.6528
lhand -23.719 25.2012
lfingers 7.12502
lthumb 2.74875 55.1633
rfemur -25.967 2.68878 -0.780154
rtibia 36.6832
rfoot 10.7413 4.6792
rtoes -47.4694
lfemur 9.79346 12.9381 -8.49796
ltibia 35.9425
lfoot 3.12332 -8.89561
ltoes -23.8928
654
root 2.77929 15.6164 1.43487 344.255 -228.953 -370.964
lowerback 17.1844 -1.88776 -5.72612
upperback 7.56251 -2.63393 -0.544814
thorax -1.25909 -1.10936 3.11379
lowerneck -4.16711 13.2511 -9.41461
upperneck -1.11828 18.108 -0.0952006
head -0.512086 9.10937 1.46968
rclavicle 4.47266e-014 2.18663e-014
rhumerus 2.99748 9.32139 -92.0637
rradius 110.809
rwrist -29.5
rhand -29.1986 44.4516
rfingers 7.12502
rthumb -2.54351 14.487
lclavicle 4.47266e-014 2.18663e-014
lhumerus 37.6255 -34.8167 64.5811
lradius 98.6138
lwrist 27.8088
lhand -23.5502 25.2097
lfingers 7.12502
lthumb 2.91177 55.1695
rfemur -26.6861 3.03361 -0.336565
rtibia 36.7319
rfoot 9.39262 4.91923
rtoes -49.7691
lfemur 8.71754 13.6555 -7.91602
ltibia 38.5405
lfoot 2.70511 -10.0005
ltoes -24.3859
